<?xml version="1.0" encoding="UTF-8"?>
<svg version="1.1" xmlns="http://www.w3.org/2000/svg" width="180" height="180">
<path d="M0 0 C0.99 0 1.98 0 3 0 C4.26757812 1.56616211 4.26757812 1.56616211 5.53125 3.77734375 C6.00667236 4.59283691 6.48209473 5.40833008 6.97192383 6.24853516 C7.47618896 7.13589355 7.9804541 8.02325195 8.5 8.9375 C9.57441802 10.77874918 10.65128765 12.61856973 11.73046875 14.45703125 C12.27493652 15.38725098 12.8194043 16.3174707 13.38037109 17.27587891 C15.76500249 21.28668945 18.26916025 25.21344764 20.8125 29.125 C21.23144531 29.77331787 21.65039062 30.42163574 22.08203125 31.08959961 C25.02237836 35.60176899 28.09393672 40.01450045 31.19067383 44.42041016 C47.56757539 67.76926212 65.11003737 93.03169691 60.69970703 123.04345703 C59.03970376 131.26311652 55.69808876 138.13260904 51 145 C50.46826172 145.91652344 50.46826172 145.91652344 49.92578125 146.8515625 C43.12814829 157.91982733 29.18067811 164.55100323 17.1875 168.3125 C14.64434873 168.86102282 12.20148066 169.25350408 9.625 169.5625 C6.1963063 169.59793141 6.1963063 169.59793141 5 171 C-0.18811108 171.29005958 -4.82278122 170.56543834 -9.8125 169.25 C-10.51101074 169.06953125 -11.20952148 168.8890625 -11.92919922 168.703125 C-19.93372546 166.57302238 -27.31319091 164.01510682 -34 159 C-34.74894531 158.49210938 -35.49789062 157.98421875 -36.26953125 157.4609375 C-46.13550349 150.33803895 -53.96138596 138.87821853 -57 127 C-57.05388649 125.33420469 -57.06731468 123.66530673 -57 122 C-57.66 122 -58.32 122 -59 122 C-59 115.73 -59 109.46 -59 103 C-58.34 103 -57.68 103 -57 103 C-56.95875 101.824375 -56.9175 100.64875 -56.875 99.4375 C-54.98002408 82.84997102 -44.07731971 66.42485451 -34.3828125 53.28125 C-31.67938268 49.60510079 -29.25114129 45.77813839 -26.86328125 41.890625 C-25.25465117 39.39505632 -23.57418928 36.99605367 -21.84765625 34.58203125 C-17.26636119 28.07294853 -13.21403756 21.2610376 -9.125 14.4375 C-7.97092707 12.51701292 -6.81583641 10.59715159 -5.65914917 8.67823792 C-4.62497476 6.9618168 -3.59389451 5.24353251 -2.56298828 3.52514648 C-1 1 -1 1 0 0 Z " fill="#D3AD73" transform="translate(89,5)"/>
<path d="M0 0 C1.85058594 0.14331055 1.85058594 0.14331055 4 1 C5.70410156 3.03442383 5.70410156 3.03442383 7.390625 5.70703125 C8.01380615 6.6805957 8.6369873 7.65416016 9.27905273 8.65722656 C9.92946533 9.6984668 10.57987793 10.73970703 11.25 11.8125 C12.59998488 13.92856123 13.95024247 16.0444485 15.30078125 18.16015625 C16.26491943 19.68406982 16.26491943 19.68406982 17.24853516 21.23876953 C19.27567971 24.43461633 21.34113854 27.59918127 23.4375 30.75 C24.02402344 31.63171875 24.61054687 32.5134375 25.21484375 33.421875 C27.86421294 37.24809746 30.68339819 40.94469919 33.53125 44.625 C35 47 35 47 35 51 C36.485 51.495 36.485 51.495 38 52 C38.7392902 53.61299679 39.46506755 55.23436933 40.1015625 56.890625 C41.46676576 60.09588482 43.30099114 63.01197394 45.109375 65.984375 C46 68 46 68 45 71 C41.91747911 71.50509639 38.83386475 72.00317999 35.75 72.5 C34.87730469 72.64308594 34.00460938 72.78617187 33.10546875 72.93359375 C32.26113281 73.06894531 31.41679688 73.20429687 30.546875 73.34375 C29.38430176 73.53227539 29.38430176 73.53227539 28.19824219 73.72460938 C26 74 26 74 22 74 C23.36983503 77.16115776 23.9890638 77.9927092 27 80 C26.47316688 84.30949491 23.76567205 87.18498684 21.125 90.4375 C20.63757324 91.04424561 20.15014648 91.65099121 19.64794922 92.27612305 C18.62303433 93.54666919 17.59447699 94.81428476 16.5625 96.07910156 C15.02744833 97.96625571 13.51332184 99.86884231 12 101.7734375 C11.04294765 102.95416447 10.08466009 104.13389155 9.125 105.3125 C8.46588623 106.14769165 8.46588623 106.14769165 7.79345703 106.99975586 C5.70223709 109.52264236 4.3548224 110.89237382 1.1796875 111.85546875 C0.10074219 111.92701172 0.10074219 111.92701172 -1 112 C-1.66386719 111.13117188 -2.32773438 110.26234375 -3.01171875 109.3671875 C-3.90357967 108.2030743 -4.7955105 107.03901467 -5.6875 105.875 C-6.34008789 105.02035156 -6.34008789 105.02035156 -7.00585938 104.1484375 C-9.9165585 100.35374828 -12.91648254 96.65577385 -16 93 C-24.0205964 94.16458308 -31.00742347 102.83542487 -36.44140625 108.42578125 C-38.83392215 110.84228227 -41.27662799 112.95747099 -44 115 C-44.99 115 -45.98 115 -47 115 C-52.78219764 100.68217727 -50.65557114 85.92700208 -45 72 C-40.25683364 61.30855525 -33.97128129 51.5602809 -27.34765625 41.95849609 C-24.93303274 38.44941823 -22.55758887 34.91426044 -20.1875 31.375 C-19.69556152 30.64104004 -19.20362305 29.90708008 -18.69677734 29.15087891 C-13.99504914 22.08542381 -9.53047602 14.87819147 -5.1003418 7.64013672 C-4.31784058 6.36227295 -4.31784058 6.36227295 -3.51953125 5.05859375 C-3.05651611 4.29861084 -2.59350098 3.53862793 -2.11645508 2.75561523 C-1 1 -1 1 0 0 Z " fill="#CB2E2D" transform="translate(89,18)"/>
<path d="M0 0 C3.39804158 1.14252023 5.09977506 2.01689874 7.41868591 4.81323242 C8.56215899 15.06572831 3.38586214 26.739994 -2.58131409 34.81323242 C-2.99897034 35.40620117 -3.41662659 35.99916992 -3.84693909 36.61010742 C-11.61486835 46.69948681 -24.27888612 51.8716988 -36.58131409 53.81323242 C-53.20544563 54.86955745 -66.0155818 51.80880198 -79.40943909 41.39135742 C-80.83131409 40.12573242 -80.83131409 40.12573242 -82.58131409 37.81323242 C-82.35494279 33.71242938 -79.78285285 31.67937727 -76.95631409 28.93823242 C-76.05912659 28.06682617 -75.16193909 27.19541992 -74.23756409 26.29760742 C-71.09714384 23.36039084 -67.89609033 20.55152584 -64.58131409 17.81323242 C-61.02778937 19.26048084 -59.43867379 20.99946069 -57.26881409 24.12963867 C-56.66811096 24.9759082 -56.06740784 25.82217773 -55.44850159 26.6940918 C-54.20187748 28.48448395 -52.9570899 30.27615623 -51.71412659 32.0690918 C-51.11342346 32.91407227 -50.51272034 33.75905273 -49.89381409 34.62963867 C-49.3536969 35.40766846 -48.81357971 36.18569824 -48.25709534 36.98730469 C-46.29619465 39.12389796 -45.45336904 39.59598664 -42.58131409 39.81323242 C-40.48659996 38.40755633 -40.48659996 38.40755633 -38.53468323 36.23901367 C-37.75029373 35.43488037 -36.96590424 34.63074707 -36.15774536 33.80224609 C-35.3191246 32.91899658 -34.48050385 32.03574707 -33.61647034 31.12573242 C-31.8294245 29.29494123 -30.04231311 27.46421403 -28.25514221 25.63354492 C-25.90956719 23.20912765 -23.57069627 20.77827492 -21.23396301 18.34533691 C-18.06552426 15.04740844 -14.87528953 11.77169908 -11.67897034 8.50073242 C-10.84237381 7.61748291 -10.00577728 6.7342334 -9.14382935 5.82421875 C-7.96251686 4.6180188 -7.96251686 4.6180188 -6.75733948 3.38745117 C-6.06991165 2.67161865 -5.38248383 1.95578613 -4.67422485 1.21826172 C-2.58131409 -0.18676758 -2.58131409 -0.18676758 0 0 Z " fill="#257A47" transform="translate(134.58131408691406,112.186767578125)"/>
<path d="M0 0 C0.99 0 1.98 0 3 0 C4.26757812 1.56616211 4.26757812 1.56616211 5.53125 3.77734375 C6.00667236 4.59283691 6.48209473 5.40833008 6.97192383 6.24853516 C7.47618896 7.13589355 7.9804541 8.02325195 8.5 8.9375 C9.57441802 10.77874918 10.65128765 12.61856973 11.73046875 14.45703125 C12.54717041 15.85236084 12.54717041 15.85236084 13.38037109 17.27587891 C15.76500249 21.28668945 18.26916025 25.21344764 20.8125 29.125 C21.23144531 29.77331787 21.65039062 30.42163574 22.08203125 31.08959961 C25.02237836 35.60176899 28.09393672 40.01450045 31.19067383 44.42041016 C65.53301096 93.38291644 65.53301096 93.38291644 60.65136719 123.12402344 C59.29510552 129.2617841 57.41139899 134.71184282 54 140 C53.67 139.34 53.34 138.68 53 138 C53.433125 137.1646875 53.433125 137.1646875 53.875 136.3125 C55.37277788 133.23373436 55.60374525 130.39646929 56 127 C56.90100591 119.34860062 56.90100591 119.34860062 57.546875 117.07421875 C60.77177579 102.31195737 51.54241096 82.53948102 44.3125 69.9375 C43.549375 68.968125 42.78625 67.99875 42 67 C40.68 67 39.36 67 38 67 C35.86372321 65.43887466 35.08401222 64.22481049 34.15625 61.7421875 C32.82518258 58.58539923 31.11571593 56.1016899 29.125 53.3125 C28.31365521 52.16247921 27.50384445 51.01137511 26.6953125 49.859375 C26.2612207 49.24126953 25.82712891 48.62316406 25.37988281 47.98632812 C17.64194534 36.84764106 10.28305317 25.43954311 3 14 C0.44294737 14.36272892 -0.69675409 14.62124641 -2.34033203 16.67407227 C-2.72560059 17.38104248 -3.11086914 18.0880127 -3.5078125 18.81640625 C-4.15169922 19.96206055 -4.15169922 19.96206055 -4.80859375 21.13085938 C-5.24300781 21.93330078 -5.67742187 22.73574219 -6.125 23.5625 C-6.99596045 25.15079669 -7.87323273 26.73565418 -8.7578125 28.31640625 C-9.1408252 29.02224854 -9.52383789 29.72809082 -9.91845703 30.45532227 C-10.27536621 30.96506592 -10.63227539 31.47480957 -11 32 C-11.66 32 -12.32 32 -13 32 C-15.04938913 22.52157526 -10.97979757 17.02828007 -6.0625 9.1875 C-5.52431641 8.30384766 -4.98613281 7.42019531 -4.43164062 6.50976562 C-3.64756836 5.25776367 -3.64756836 5.25776367 -2.84765625 3.98046875 C-2.37336182 3.21629639 -1.89906738 2.45212402 -1.41040039 1.66479492 C-0.94496826 1.1154126 -0.47953613 0.56603027 0 0 Z " fill="#EFDAAB" transform="translate(89,5)"/>
<path d="M0 0 C1.32 0 2.64 0 4 0 C4 1.32 4 2.64 4 4 C5.093125 4.12375 6.18625 4.2475 7.3125 4.375 C11 5 11 5 14 7 C13.1875 9.4375 13.1875 9.4375 12 12 C8.37673261 13.2077558 7.35853631 12.54311128 4 11 C3.86521065 13.87866256 3.86521065 13.87866256 5 17 C6.95687282 18.34185565 8.89971863 19.23436633 11.08984375 20.140625 C13 21 13 21 15 23 C15.8417985 28.00648582 15.79840698 31.84935465 12.875 36.0625 C9.78603703 38.14419243 7.68684241 38.74277844 4 39 C4 40.98 4 42.96 4 45 C2.35 45 0.7 45 -1 45 C-1 43.02 -1 41.04 -1 39 C-2.051875 38.896875 -3.10375 38.79375 -4.1875 38.6875 C-7.87430754 38.02266585 -9.96638599 37.11433704 -13 35 C-11.55263158 30.29605263 -11.55263158 30.29605263 -9.25 29.0625 C-6.19940251 28.97776118 -3.82404462 29.90889185 -1 31 C-0.86521065 28.12133744 -0.86521065 28.12133744 -2 25 C-3.9919613 23.66057775 -5.96645815 22.76365632 -8.1875 21.859375 C-10 21 -10 21 -11 19 C-11.41283811 15.61472747 -11.48050043 12.37988371 -11 9 C-8.37464426 5.83412985 -6.67590171 5.15303435 -2.6875 4.25 C-1.3571875 4.12625 -1.3571875 4.12625 0 4 C0 2.68 0 1.36 0 0 Z " fill="#F0DDAE" transform="translate(89,47)"/>
<path d="M0 0 C0.66 0 1.32 0 2 0 C2.66796875 1.70703125 2.66796875 1.70703125 3 4 C-2.30048718 15.84935166 -14.53247049 22.89055343 -25.9296875 27.84765625 C-29.93588811 29.35125572 -33.7845474 30.28551651 -38 31 C-38 30.67 -38 30.34 -38 30 C-43.61 29.67 -49.22 29.34 -55 29 C-55 28.67 -55 28.34 -55 28 C-50.71 28 -46.42 28 -42 28 C-42 27.34 -42 26.68 -42 26 C-43.22074219 25.91363281 -44.44148438 25.82726562 -45.69921875 25.73828125 C-62.91467264 24.34252842 -76.98368366 19.94064837 -89 7 C-88.67 6.34 -88.34 5.68 -88 5 C-87.63390625 5.42410156 -87.2678125 5.84820312 -86.890625 6.28515625 C-77.53975251 16.41526811 -65.626648 21.83559009 -51.93261719 22.40014648 C-35.97787372 22.67319746 -22.45111571 18.04011694 -10.5234375 7.31640625 C-7.38021599 4.60034048 -3.72151321 2.79183969 0 1 C0 0.67 0 0.34 0 0 Z " fill="#E0BD86" transform="translate(139,143)"/>
<path d="M0 0 C0 4.15636526 -1.90998492 6.75538965 -3.90625 10.33203125 C-5.17344175 13.42307398 -5.00850604 15.68264511 -5 19 C-6.0234375 21.96484375 -6.0234375 21.96484375 -7.375 24.9375 C-11.15552566 33.32761396 -12.34171869 40.37208148 -12.3125 49.5 C-12.32861328 50.50675781 -12.34472656 51.51351562 -12.36132812 52.55078125 C-12.36521892 58.48813616 -11.88647112 62.7748552 -9 68 C-8.34 68.66 -7.68 69.32 -7 70 C-8.32 69.67 -9.64 69.34 -11 69 C-12.46726798 72.81489674 -11.43336419 75.29011622 -10 79 C-10.66 79 -11.32 79 -12 79 C-16.37701429 70.81398091 -18.09920571 63.20961327 -19 54 C-19.66 54 -20.32 54 -21 54 C-21 50.04 -21 46.08 -21 42 C-20.34 42 -19.68 42 -19 42 C-18.95875 40.824375 -18.9175 39.64875 -18.875 38.4375 C-17.71880334 28.31681967 -12.53151063 18.69548835 -7.875 9.75 C-7.55072021 9.11819824 -7.22644043 8.48639648 -6.89233398 7.83544922 C-5.04207739 4.39771657 -3.34815503 2.05353509 0 0 Z " fill="#AD8249" transform="translate(51,66)"/>
<path d="M0 0 C3.28848568 1.43550823 5.39927605 3.23613521 7.9375 5.75 C20.00516644 16.66647458 34.46214679 18.14922418 50 19 C49.505 20.485 49.505 20.485 49 22 C50.65 22.33 52.3 22.66 54 23 C53 25 53 25 49.875 26.125 C43.2997476 27.60973441 37.64136722 26.95143144 31.1875 25.25 C30.48898926 25.06953125 29.79047852 24.8890625 29.07080078 24.703125 C10.10385952 19.65578928 10.10385952 19.65578928 5 12 C4.92094936 9.66800612 4.91201231 7.33167378 5 5 C4.34 5 3.68 5 3 5 C1.375 2.5 1.375 2.5 0 0 Z " fill="#D9B070" transform="translate(48,149)"/>
<path d="M0 0 C0.66 0 1.32 0 2 0 C2.103125 1.258125 2.20625 2.51625 2.3125 3.8125 C2.73120792 7.37464198 3.41343898 8.53100993 6 11 C5.6875 13.6875 5.6875 13.6875 5 16 C5.66 16 6.32 16 7 16 C9 19 9 19 9 22 C7.02 22.66 5.04 23.32 3 24 C4.32 24.66 5.64 25.32 7 26 C6.34 26 5.68 26 5 26 C5 26.99 5 27.98 5 29 C6.32 29.33 7.64 29.66 9 30 C7.68 30 6.36 30 5 30 C5 31.98 5 33.96 5 36 C3.35 36 1.7 36 0 36 C0 34.02 0 32.04 0 30 C-1.051875 29.896875 -2.10375 29.79375 -3.1875 29.6875 C-6.87430754 29.02266585 -8.96638599 28.11433704 -12 26 C-10.55263158 21.29605263 -10.55263158 21.29605263 -8.25 20.0625 C-5.19940251 19.97776118 -2.82404462 20.90889185 0 22 C0.13478935 19.12133744 0.13478935 19.12133744 -1 16 C-3.00152844 14.73179017 -4.97066263 13.88600151 -7.1875 13.0546875 C-9 12 -9 12 -9.75 9.8828125 C-9.8325 9.26148437 -9.915 8.64015625 -10 8 C-9.01 7.67 -8.02 7.34 -7 7 C-6.34 6.34 -5.68 5.68 -5 5 C-4.34 5.33 -3.68 5.66 -3 6 C-2.87625 5.38125 -2.7525 4.7625 -2.625 4.125 C-2 2 -2 2 0 0 Z " fill="#D6A973" transform="translate(88,56)"/>
<path d="M0 0 C1 2 1 2 0.5 3.875 C-0.20423131 5.96884677 -0.20423131 5.96884677 0.6875 7.76953125 C1.17806946 11.27097075 -0.54093674 12.93423859 -2.5 15.8125 C-3.32727282 17.04787592 -4.15405789 18.28357855 -4.98046875 19.51953125 C-5.45145996 20.2151416 -5.92245117 20.91075195 -6.40771484 21.62744141 C-9.5983203 26.38155116 -12.69373357 31.19860144 -15.8125 36 C-19.51632299 41.68372338 -23.22150189 47.36556453 -27 53 C-27.33 52.34 -27.66 51.68 -28 51 C-27.06553465 48.96855359 -26.06775224 46.96466413 -25 45 C-25.66 44.67 -26.32 44.34 -27 44 C-26.34 42.35 -25.68 40.7 -25 39 C-25.66 38.67 -26.32 38.34 -27 38 C-26.50371094 37.33355469 -26.00742187 36.66710937 -25.49609375 35.98046875 C-21.34447808 30.3478213 -17.43923759 24.63936402 -13.73046875 18.70703125 C-11.45828985 15.15258434 -9.03299856 11.71900267 -6.578125 8.2890625 C-4.93410712 5.96877552 -4.93410712 5.96877552 -3.421875 3.2734375 C-2 1 -2 1 0 0 Z " fill="#D4B077" transform="translate(76,28)"/>
<path d="M0 0 C2.86131908 0.32934079 3.82365086 0.78946742 5.70410156 3.03442383 C6.2606543 3.91638428 6.81720703 4.79834473 7.390625 5.70703125 C8.01380615 6.6805957 8.6369873 7.65416016 9.27905273 8.65722656 C10.25467163 10.21908691 10.25467163 10.21908691 11.25 11.8125 C12.59998488 13.92856123 13.95024247 16.0444485 15.30078125 18.16015625 C15.94354004 19.17609863 16.58629883 20.19204102 17.24853516 21.23876953 C19.27567971 24.43461633 21.34113854 27.59918127 23.4375 30.75 C24.02402344 31.63171875 24.61054687 32.5134375 25.21484375 33.421875 C27.86421294 37.24809746 30.68339819 40.94469919 33.53125 44.625 C35 47 35 47 35 51 C35.99 51.33 36.98 51.66 38 52 C38.7392902 53.61299679 39.46506755 55.23436933 40.1015625 56.890625 C41.46676576 60.09588482 43.30099114 63.01197394 45.109375 65.984375 C46 68 46 68 45 71 C44.01 71 43.02 71 42 71 C41.525625 69.824375 41.05125 68.64875 40.5625 67.4375 C37.64837847 60.84403799 33.79555069 54.78421023 30.01513672 48.66210938 C29.12258896 47.20071805 28.2635795 45.71895402 27.41015625 44.234375 C26.14491683 42.03320855 26.14491683 42.03320855 24.60839844 40.6574707 C22.68704109 38.67749271 21.33012664 36.57819906 19.85546875 34.24609375 C19.26056641 33.30830078 18.66566406 32.37050781 18.05273438 31.40429688 C17.43720703 30.42525391 16.82167969 29.44621094 16.1875 28.4375 C15.58357422 27.48552734 14.97964844 26.53355469 14.35742188 25.55273438 C12.55924636 22.70933305 10.7754808 19.8576223 9 17 C8.41041504 16.05141113 7.82083008 15.10282227 7.21337891 14.12548828 C6.66472168 13.22942871 6.11606445 12.33336914 5.55078125 11.41015625 C5.05876221 10.60843994 4.56674316 9.80672363 4.05981445 8.98071289 C3 7 3 7 3 5 C1.68 4.67 0.36 4.34 -1 4 C-0.67 2.68 -0.34 1.36 0 0 Z " fill="#A02F20" transform="translate(89,18)"/>
<path d="M0 0 C3.51645576 1.44608656 5.19126428 3.19427995 7.41796875 6.24609375 C8.33932617 7.50196289 8.33932617 7.50196289 9.27929688 8.78320312 C10.22385742 10.09708008 10.22385742 10.09708008 11.1875 11.4375 C11.82880859 12.30955078 12.47011719 13.18160156 13.13085938 14.08007812 C17.85817269 20.57451806 17.85817269 20.57451806 19 24 C19.66 24.33 20.32 24.66 21 25 C19.02 25.66 17.04 26.32 15 27 C14.66226563 26.43410156 14.32453125 25.86820313 13.9765625 25.28515625 C13.53054687 24.55167969 13.08453125 23.81820312 12.625 23.0625 C11.96371094 21.96615234 11.96371094 21.96615234 11.2890625 20.84765625 C10.1226016 18.86227728 10.1226016 18.86227728 8 18 C4 12 4 12 2.4375 9.375 C1.20512563 7.12552959 1.20512563 7.12552959 0 6 C-3.6057793 8.78160117 -6.82112835 11.74165656 -10 15 C-11.66666667 16.66666667 -13.33333333 18.33333333 -15 20 C-14.52949219 20.39832031 -14.05898438 20.79664063 -13.57421875 21.20703125 C-12.95160156 21.73683594 -12.32898437 22.26664063 -11.6875 22.8125 C-11.07261719 23.33457031 -10.45773438 23.85664063 -9.82421875 24.39453125 C-8.14575321 25.87172469 -6.56117966 27.40039131 -5 29 C-10.40489519 27.47987323 -13.98492628 23.72614782 -18 20 C-17.48446255 15.85660641 -15.30030337 13.96192563 -12.375 11.125 C-11.4778125 10.25359375 -10.580625 9.3821875 -9.65625 8.484375 C-6.51582975 5.54715842 -3.31477625 2.73829342 0 0 Z " fill="#19431F" transform="translate(70,130)"/>
<path d="M0 0 C3.61119823 3.46935083 5.96631314 6.39744553 8 11 C5.97814202 12.0831382 4.29181932 12.95177045 2.01611328 13.32788086 C-0.68153379 14.22720544 -1.16292172 15.34852323 -2.5078125 17.81640625 C-3.15169922 18.96206055 -3.15169922 18.96206055 -3.80859375 20.13085938 C-4.24300781 20.93330078 -4.67742187 21.73574219 -5.125 22.5625 C-5.99596045 24.15079669 -6.87323273 25.73565418 -7.7578125 27.31640625 C-8.1408252 28.02224854 -8.52383789 28.72809082 -8.91845703 29.45532227 C-9.27536621 29.96506592 -9.63227539 30.47480957 -10 31 C-10.66 31 -11.32 31 -12 31 C-13.5485182 23.83810332 -12.20789377 19.73136318 -8.3984375 13.57421875 C-7.90859375 12.77822266 -7.41875 11.98222656 -6.9140625 11.16210938 C-6.40617187 10.34548828 -5.89828125 9.52886719 -5.375 8.6875 C-4.859375 7.85154297 -4.34375 7.01558594 -3.8125 6.15429688 C-2.54512996 4.10068801 -1.27421427 2.04936659 0 0 Z " fill="#EFDAAB" transform="translate(88,6)"/>
<path d="M0 0 C3.34066557 2.77005499 4.99463189 6.49639263 6.875 10.3125 C7.22506104 11.01802002 7.57512207 11.72354004 7.93579102 12.45043945 C16.60699721 30.29799004 20.16893243 47.83756152 14.16796875 67.08203125 C13.02403831 69.93994443 11.66628156 72.41702487 10 75 C9.67 74.34 9.34 73.68 9 73 C9.28875 72.443125 9.5775 71.88625 9.875 71.3125 C11.37277788 68.23373436 11.60374525 65.39646929 12 62 C12.90100591 54.34860062 12.90100591 54.34860062 13.546875 52.07421875 C16.69638266 37.65707592 7.88368194 19.25679713 1.28125 6.7421875 C0 4 0 4 0 0 Z " fill="#EDDDBD" transform="translate(133,70)"/>
<path d="M0 0 C3.39614258 1.14236286 5.09697624 2.01731595 7.41471863 4.8122406 C8.49071726 14.45975379 3.76767568 25.35223522 -1.33918762 33.2888031 C-2.58528137 34.8122406 -2.58528137 34.8122406 -5.58528137 36.8122406 C-4.59168703 34.82061622 -3.59482521 32.83099275 -2.58528137 30.84739685 C-2.09028137 29.87093201 -2.09028137 29.87093201 -1.58528137 28.8747406 C-1.25528137 28.22634216 -0.92528137 27.57794373 -0.58528137 26.90989685 C-0.25528137 26.21767029 0.07471863 25.52544373 0.41471863 24.8122406 C0.7833905 24.04395935 1.15206238 23.2756781 1.53190613 22.4841156 C2.6158693 19.20344829 2.60936059 16.44701787 2.53971863 12.9997406 C2.52167175 11.83829529 2.50362488 10.67684998 2.48503113 9.48020935 C2.461828 8.59977966 2.43862488 7.71934998 2.41471863 6.8122406 C1.09471863 6.8122406 -0.22528137 6.8122406 -1.58528137 6.8122406 C-1.58528137 6.1522406 -1.58528137 5.4922406 -1.58528137 4.8122406 C-5.21921107 6.07840236 -7.57272979 7.42876147 -10.27400208 10.16038513 C-10.95432999 10.84093964 -11.6346579 11.52149414 -12.33560181 12.22267151 C-13.05350388 12.95605743 -13.77140594 13.68944336 -14.51106262 14.4450531 C-15.25865341 15.19688873 -16.0062442 15.94872437 -16.77648926 16.7233429 C-19.15739839 19.12101472 -21.52765138 21.52891757 -23.89778137 23.9372406 C-25.51232371 25.56683279 -27.12755034 27.19574731 -28.7434845 28.82395935 C-32.69871775 32.81222997 -36.64525778 36.80894669 -40.58528137 40.8122406 C-41.24528137 40.4822406 -41.90528137 40.1522406 -42.58528137 39.8122406 C-37.47404818 34.5620327 -32.34674462 29.32809585 -27.1982851 24.1143713 C-24.8081645 21.69292751 -22.4239461 19.26621877 -20.05232239 16.8266449 C-17.32603271 14.02273855 -14.57564249 11.24319142 -11.82356262 8.46458435 C-10.5498455 7.14441566 -10.5498455 7.14441566 -9.25039673 5.7975769 C-8.44994431 4.9966713 -7.64949188 4.19576569 -6.82478333 3.37059021 C-6.12529068 2.6577739 -5.42579803 1.94495758 -4.70510864 1.21054077 C-2.58528137 -0.1877594 -2.58528137 -0.1877594 0 0 Z " fill="#115C30" transform="translate(134.5852813720703,112.18775939941406)"/>
<path d="M0 0 C0 5.13123298 -2.21100188 9.60992782 -4.15771484 14.30053711 C-10.58919377 29.86374958 -13.48359761 44.34663744 -9 61 C-4.88736369 58.74444078 -1.57610323 55.95253651 1.8125 52.75 C2.87081761 51.77053487 3.92941198 50.79136871 4.98828125 49.8125 C6.81095906 48.11645275 8.61852045 46.40845863 10.41796875 44.6875 C11.10503906 44.048125 11.79210937 43.40875 12.5 42.75 C13.0878125 42.18796875 13.675625 41.6259375 14.28125 41.046875 C16 40 16 40 18.21875 40.328125 C19.10046875 40.66070312 19.10046875 40.66070312 20 41 C19.113125 41.721875 18.22625 42.44375 17.3125 43.1875 C15.35831614 44.81523087 13.55247421 46.44752579 11.75 48.25 C-2.8974359 62.8974359 -2.8974359 62.8974359 -7.5625 63.125 C-10.57212902 61.73594045 -11.18530285 60.21288236 -12.38256836 57.20263672 C-13.59936009 52.86183207 -13.52728878 48.48015433 -13.5 44 C-13.49790527 42.98703857 -13.49581055 41.97407715 -13.49365234 40.93041992 C-13.29540881 31.40035409 -11.30032899 23.2584834 -6.83203125 14.78515625 C-5.79039338 12.89376547 -5.79039338 12.89376547 -6.0625 10.125 C-5.98671241 6.33562052 -5.00300153 4.18996541 -3 1 C-2.01 0.67 -1.02 0.34 0 0 Z " fill="#DAB077" transform="translate(51,72)"/>
<path d="M0 0 C0.99 0 1.98 0 3 0 C4.26757812 1.56616211 4.26757812 1.56616211 5.53125 3.77734375 C6.00667236 4.59283691 6.48209473 5.40833008 6.97192383 6.24853516 C7.47618896 7.13589355 7.9804541 8.02325195 8.5 8.9375 C9.57441802 10.77874918 10.65128765 12.61856973 11.73046875 14.45703125 C12.54717041 15.85236084 12.54717041 15.85236084 13.38037109 17.27587891 C19.84053301 28.14149342 26.96877454 38.61357881 34.34667969 48.87255859 C35.86617982 50.99138943 37.37096627 53.12017046 38.875 55.25 C39.36419922 55.92426025 39.85339844 56.59852051 40.35742188 57.29321289 C43.09083761 61.18659543 44.65140581 64.11968134 45 69 C42.90940876 67.00901462 41.22970427 65.02336757 39.64453125 62.61328125 C39.1952124 61.93458984 38.74589355 61.25589844 38.28295898 60.55664062 C37.79770752 59.81607422 37.31245605 59.07550781 36.8125 58.3125 C35.73731088 56.68337478 34.66177136 55.05448077 33.5859375 53.42578125 C33.0094043 52.55131348 32.43287109 51.6768457 31.83886719 50.77587891 C29.91847174 47.87692826 27.98096323 44.99005347 26.0390625 42.10546875 C19.26900388 32.03611872 12.58824858 21.9476814 6.36108398 11.53125 C4.72823254 8.80147403 3.13374767 6.17599912 1.20703125 3.640625 C0 2 0 2 0 0 Z " fill="#EFE3CA" transform="translate(89,5)"/>
<path d="M0 0 C0 4.15636526 -1.90998492 6.75538965 -3.90625 10.33203125 C-5.1726668 13.42118367 -5.0128297 15.68566147 -5 19 C-5.98828125 21.7890625 -5.98828125 21.7890625 -7.3125 24.625 C-11.64239697 34.56045765 -13.44505137 44.20720595 -14 55 C-14.33 55 -14.66 55 -15 55 C-15.33 52.03 -15.66 49.06 -16 46 C-16.33 46 -16.66 46 -17 46 C-17.37719035 34.11850383 -14.12433124 25.43180035 -8.93017578 14.89111328 C-8.03328612 13.06767303 -7.15494034 11.23514751 -6.27734375 9.40234375 C-2.26583399 1.13291699 -2.26583399 1.13291699 0 0 Z " fill="#AF844A" transform="translate(51,66)"/>
<path d="M0 0 C1 2 1 2 0.5 3.875 C-0.21246519 5.96615243 -0.21246519 5.96615243 0.72265625 7.7109375 C1.16898223 11.39469842 -1.0596904 13.8349077 -3.0625 16.75 C-3.4742749 17.36891113 -3.8860498 17.98782227 -4.31030273 18.62548828 C-7.3827634 23.20572503 -10.60762893 27.65080632 -14 32 C-14.33 31.34 -14.66 30.68 -15 30 C-14.22265625 28.2734375 -14.22265625 28.2734375 -13.0625 26.375 C-12.0415625 24.704375 -12.0415625 24.704375 -11 23 C-11.66 22.67 -12.32 22.34 -13 22 C-13 18.05199239 -12.95973047 17.43802369 -10.91796875 14.43359375 C-10.48033203 13.78326172 -10.04269531 13.13292969 -9.59179688 12.46289062 C-9.12837891 11.79451172 -8.66496094 11.12613281 -8.1875 10.4375 C-7.73568359 9.76525391 -7.28386719 9.09300781 -6.81835938 8.40039062 C-4.72782683 5.32715519 -2.69553268 2.57614441 0 0 Z " fill="#E4C68E" transform="translate(76,28)"/>
<path d="M0 0 C1.33917261 0.30903983 2.67088318 0.65023242 4 1 C5.134375 1.103125 6.26875 1.20625 7.4375 1.3125 C11.37151131 2.07169517 13.11681792 3.29155623 16 6 C15.34 6 14.68 6 14 6 C14 6.99 14 7.98 14 9 C15.32 9.33 16.64 9.66 18 10 C16.68 10 15.36 10 14 10 C14 11.98 14 13.96 14 16 C12.35 16 10.7 16 9 16 C9 14.02 9 12.04 9 10 C7.4221875 9.8453125 7.4221875 9.8453125 5.8125 9.6875 C2.12569246 9.02266585 0.03361401 8.11433704 -3 6 C-1.125 1.125 -1.125 1.125 0 0 Z " fill="#E2C085" transform="translate(79,76)"/>
<path d="M0 0 C6.37759336 0.4813278 6.37759336 0.4813278 8.875 2.5625 C10.47160752 6.02181628 11.37176874 9.16850581 11 13 C8.9375 16 8.9375 16 6 18 C2.6875 18.3125 2.6875 18.3125 0 18 C0 16.68 0 15.36 0 14 C-0.66 13.67 -1.32 13.34 -2 13 C-2 10.36 -2 7.72 -2 5 C-1.67 5 -1.34 5 -1 5 C-1 7.31 -1 9.62 -1 12 C0.65 11.67 2.3 11.34 4 11 C3.34 9.02 2.68 7.04 2 5 C1.34 5 0.68 5 0 5 C0 3.35 0 1.7 0 0 Z " fill="#E6C68C" transform="translate(93,67)"/>
<path d="M0 0 C3.28848568 1.43550823 5.39927605 3.23613521 7.9375 5.75 C14.94266358 12.11833053 23.82589915 15.86648817 33 18 C29.65175945 20.23216037 28.38026601 20.1490564 24.5234375 19.546875 C9.32613825 16.25334265 9.32613825 16.25334265 5 12 C4.75 8.3125 4.75 8.3125 5 5 C4.34 5 3.68 5 3 5 C1.375 2.5 1.375 2.5 0 0 Z " fill="#C89B5D" transform="translate(48,149)"/>
<path d="M0 0 C0.33 0 0.66 0 1 0 C1.268125 1.258125 1.53625 2.51625 1.8125 3.8125 C2.8926703 8.05321416 2.8926703 8.05321416 6 11 C7.97620986 12.04622875 9.9737129 13.05439935 12 14 C12 15.98 12 17.96 12 20 C8.93606987 20.25532751 7.36766788 20.21861333 4.6875 18.625 C4.130625 18.08875 3.57375 17.5525 3 17 C3 16.34 3 15.68 3 15 C1.68 14.67 0.36 14.34 -1 14 C-1.33 12.35 -1.66 10.7 -2 9 C-2.33 9 -2.66 9 -3 9 C-3.25873987 5.89512156 -3.23307327 4.37494396 -1.5625 1.6875 C-1.046875 1.130625 -0.53125 0.57375 0 0 Z " fill="#A71E1C" transform="translate(76,58)"/>
<path d="M0 0 C2.4375 0.75 2.4375 0.75 5 2 C5.81201172 3.85913086 5.81201172 3.85913086 6 6 C5.06298828 7.74829102 5.06298828 7.74829102 3.5703125 9.50390625 C3.02608643 10.1572998 2.48186035 10.81069336 1.92114258 11.48388672 C1.32841553 12.1698291 0.73568848 12.85577148 0.125 13.5625 C-0.46837158 14.26906738 -1.06174316 14.97563477 -1.6730957 15.70361328 C-2.87421964 17.13366953 -4.08001367 18.55981678 -5.29052734 19.98193359 C-7.63207123 22.74617264 -9.90855623 25.55895655 -12.1875 28.375 C-14.06822321 30.68490494 -15.89430924 32.89430924 -18 35 C-19.32 35 -20.64 35 -22 35 C-23.484375 33.46875 -23.484375 33.46875 -24.75 31.5 C-25.17796875 30.8503125 -25.6059375 30.200625 -26.046875 29.53125 C-26.36140625 29.0259375 -26.6759375 28.520625 -27 28 C-26.67 27.34 -26.34 26.68 -26 26 C-24.02 28.31 -22.04 30.62 -20 33 C-11.56234053 24.99963233 -11.56234053 24.99963233 -6 15 C-5.01 14.67 -4.02 14.34 -3 14 C-0.85998533 11.78515964 -0.05737853 10.50493103 0.29296875 7.421875 C0.25816406 6.54015625 0.22335938 5.6584375 0.1875 4.75 C0.16042969 3.85796875 0.13335937 2.9659375 0.10546875 2.046875 C0.05326172 1.03367187 0.05326172 1.03367187 0 0 Z " fill="#C3201B" transform="translate(110,95)"/>
<path d="M0 0 C1.76953125 0.7421875 1.76953125 0.7421875 3.8125 1.875 C6.87860609 3.49461888 9.52038527 4.56504816 13 5 C13 6.98 13 8.96 13 11 C14.65 11 16.3 11 18 11 C17.01 11.495 17.01 11.495 16 12 C15.67 12.99 15.34 13.98 15 15 C12.83125748 14.49396008 11.00032373 14.00016187 9 13 C8.67 12.01 8.34 11.02 8 10 C5.69631264 8.93347808 3.35981813 7.93578995 1 7 C0.01 6.34 -0.98 5.68 -2 5 C-2 3.68 -2 2.36 -2 1 C-1.34 0.67 -0.68 0.34 0 0 Z " fill="#A01D1C" transform="translate(75,81)"/>
<path d="M0 0 C3.45674321 1.23455115 5.25083751 2.07453935 7.625 4.9375 C8.70099864 14.58501319 3.97795705 25.47749461 -1.12890625 33.4140625 C-2.375 34.9375 -2.375 34.9375 -5.375 36.9375 C-4.399336 34.97749944 -3.41859021 33.0215038 -2.41015625 31.078125 C1.56020138 23.3606427 5.38650582 15.87551104 3.625 6.9375 C0.91254926 4.45108682 -1.78952866 3.60147617 -5.375 2.9375 C-3.620152 0.62848947 -2.97094787 -0.07818284 0 0 Z " fill="#1C4A22" transform="translate(134.375,112.0625)"/>
<path d="M0 0 C-1.0828125 0.5878125 -1.0828125 0.5878125 -2.1875 1.1875 C-5.25583641 3.16487235 -7.48552044 5.35979646 -10 8 C-11.66666667 9.66666667 -13.33333333 11.33333333 -15 13 C-14.52949219 13.39832031 -14.05898438 13.79664063 -13.57421875 14.20703125 C-12.95160156 14.73683594 -12.32898437 15.26664063 -11.6875 15.8125 C-11.07261719 16.33457031 -10.45773438 16.85664063 -9.82421875 17.39453125 C-8.14575321 18.87172469 -6.56117966 20.40039131 -5 22 C-10.40489519 20.47987323 -13.98492628 16.72614782 -18 13 C-17.49742154 8.77242825 -15.12951599 6.72867105 -12.1875 3.8125 C-11.31480469 2.93207031 -10.44210938 2.05164063 -9.54296875 1.14453125 C-5.66476322 -2.12602917 -4.31963158 -2.87975438 0 0 Z " fill="#1D6431" transform="translate(70,137)"/>
<path d="M0 0 C0.57492188 0.23460938 1.14984375 0.46921875 1.7421875 0.7109375 C0.8553125 1.4328125 -0.0315625 2.1546875 -0.9453125 2.8984375 C-2.89949636 4.52616837 -4.70533829 6.15846329 -6.5078125 7.9609375 C-18.0009819 19.4541069 -18.0009819 19.4541069 -23.2578125 22.7109375 C-24.2478125 22.3809375 -25.2378125 22.0509375 -26.2578125 21.7109375 C-22.31059035 17.63214128 -18.13415938 13.84273063 -13.890625 10.07421875 C-12.15311141 8.51458118 -10.43867205 6.92879872 -8.75 5.31640625 C-7.96882813 4.58035156 -7.18765625 3.84429687 -6.3828125 3.0859375 C-5.68414062 2.41304688 -4.98546875 1.74015625 -4.265625 1.046875 C-2.2578125 -0.2890625 -2.2578125 -0.2890625 0 0 Z " fill="#BC9156" transform="translate(69.2578125,112.2890625)"/>
<path d="M0 0 C0.33 0.66 0.66 1.32 1 2 C-0.15503053 4.60851855 -1.36653743 7.10212175 -2.6875 9.625 C-3.04005859 10.31207031 -3.39261719 10.99914062 -3.75585938 11.70703125 C-6.7701709 17.58135681 -6.7701709 17.58135681 -8.08349609 19.97363281 C-10.77726719 25.01391634 -12.13948865 29.91103302 -13.25 35.5 C-13.42273437 36.32242188 -13.59546875 37.14484375 -13.7734375 37.9921875 C-14.19216021 39.99275154 -14.59750873 41.9961073 -15 44 C-15.99 44 -16.98 44 -18 44 C-18 42.68 -18 41.36 -18 40 C-17.34 40 -16.68 40 -16 40 C-15.95875 38.824375 -15.9175 37.64875 -15.875 36.4375 C-14.66156671 25.81580315 -7.81150214 7.81150214 0 0 Z " fill="#D1BFA3" transform="translate(48,68)"/>
<path d="M0 0 C2.52972857 3.79459285 2.38366322 6.90839168 2.375 11.3125 C2.37411377 12.11196045 2.37322754 12.9114209 2.37231445 13.73510742 C2.18734502 23.16667088 0.17010856 31.98559103 -5 40 C-5.33 39.34 -5.66 38.68 -6 38 C-5.71125 37.443125 -5.4225 36.88625 -5.125 36.3125 C-3.62722212 33.23373436 -3.39625475 30.39646929 -3 27 C-2.81346966 25.52071074 -2.62597971 24.04154215 -2.4375 22.5625 C-2.293125 21.386875 -2.14875 20.21125 -2 19 C-1.67 19 -1.34 19 -1 19 C-0.67 12.73 -0.34 6.46 0 0 Z " fill="#DCC4A2" transform="translate(148,105)"/>
<path d="M0 0 C3.56717297 0.60433436 3.94683927 0.93374421 6.39453125 3.984375 C7.21307766 5.23143111 8.01868619 6.48705629 8.8125 7.75 C9.44188477 8.68199219 9.44188477 8.68199219 10.08398438 9.6328125 C11.97673624 12.58887307 13.04856146 14.39815629 12.76171875 17.953125 C12.51035156 18.62859375 12.25898437 19.3040625 12 20 C9.36115438 17.59888822 7.63586471 14.99444972 5.8125 11.9375 C5.28269531 11.05964844 4.75289063 10.18179687 4.20703125 9.27734375 C3 7 3 7 3 5 C1.68 4.67 0.36 4.34 -1 4 C-0.67 2.68 -0.34 1.36 0 0 Z " fill="#8A2815" transform="translate(89,18)"/>
<path d="M0 0 C1.25683594 0.15339844 2.51367188 0.30679688 3.80859375 0.46484375 C9.21872542 1.06596949 14.62581626 1.33171523 20.0625 1.5625 C21.02349609 1.60568359 21.98449219 1.64886719 22.97460938 1.69335938 C25.31630277 1.79821132 27.65807929 1.90037788 30 2 C29 4 29 4 25.875 5.125 C18.12276083 6.87550562 11.38600949 5.74854565 4 3 C1.66796875 1.39453125 1.66796875 1.39453125 0 0 Z " fill="#D5A062" transform="translate(72,170)"/>
<path d="M0 0 C-0.99 0.33 -1.98 0.66 -3 1 C-2.814375 1.5775 -2.62875 2.155 -2.4375 2.75 C-1.95605367 5.22600969 -2.36051901 6.60194629 -3 9 C-2.67 9.66 -2.34 10.32 -2 11 C-3.32 10.34 -4.64 9.68 -6 9 C-6.66 9.66 -7.32 10.32 -8 11 C-8.99 11 -9.98 11 -11 11 C-11.35820896 3.71641791 -11.35820896 3.71641791 -10 1 C-6.72032242 -0.63983879 -3.62861311 -0.17845638 0 0 Z " fill="#E6C990" transform="translate(89,53)"/>
<path d="M0 0 C3.465 1.98 3.465 1.98 7 4 C6.67 5.65 6.34 7.3 6 9 C7.32 9 8.64 9 10 9 C10 10.98 10 12.96 10 15 C11.32 15.33 12.64 15.66 14 16 C12.35 16 10.7 16 9 16 C9 14.02 9 12.04 9 10 C7.4221875 9.8453125 7.4221875 9.8453125 5.8125 9.6875 C2.12569246 9.02266585 0.03361401 8.11433704 -3 6 C-1.125 1.125 -1.125 1.125 0 0 Z " fill="#D6A769" transform="translate(79,76)"/>
<path d="M0 0 C0 3.46167812 -0.84365024 4.81726752 -2.5 7.8125 C-4.60948427 11.87826576 -5.20454617 14.39771119 -5 19 C-5.74509632 21.58371529 -6.72494962 23.59157151 -8 26 C-8.99 26.33 -9.98 26.66 -11 27 C-10.29447443 20.07433062 -8.43309418 14.13702462 -5.5 7.875 C-5.19118896 7.21169678 -4.88237793 6.54839355 -4.56420898 5.86499023 C-2.27138406 1.13569203 -2.27138406 1.13569203 0 0 Z " fill="#B99056" transform="translate(51,66)"/>
<path d="M0 0 C4.21263763 1.52755554 5.84918775 4.26959239 8.25 7.9375 C8.95640625 8.99839844 9.6628125 10.05929688 10.390625 11.15234375 C12 14 12 14 12 17 C11.01 16.34 10.02 15.68 9 15 C8.01 14.67 7.02 14.34 6 14 C2.51914564 9.78474573 0.41237325 5.49830996 0 0 Z " fill="#9D3720" transform="translate(100,34)"/>
<path d="M0 0 C7.39393019 2.15928935 14.70417741 4.5304518 22 7 C22 7.99 22 8.98 22 10 C20 11 20 11 17.171875 10.14453125 C2.1481219 4.2962438 2.1481219 4.2962438 0 0 Z " fill="#D9B07A" transform="translate(54,162)"/>
<path d="M0 0 C4.68429086 4.68429086 6.26283743 12.84643386 6.3125 19.3125 C6.14047998 23.25621822 5.67608411 27.11251636 5 31 C4.67 31 4.34 31 4 31 C3.95101562 30.31035156 3.90203125 29.62070313 3.8515625 28.91015625 C3.48947895 24.35914063 3.08028177 19.94205414 2 15.5 C0.75651605 10.38686825 0.37207975 5.23849119 0 0 Z " fill="#E6D2AD" transform="translate(143,89)"/>
<path d="M0 0 C0.66 0.99 1.32 1.98 2 3 C-1.19740755 6.85408783 -3.51785251 7.61306717 -8.4375 8.1875 C-9.54996094 8.32542969 -10.66242188 8.46335937 -11.80859375 8.60546875 C-12.86175781 8.73566406 -13.91492188 8.86585937 -15 9 C-15.90234375 9.18046875 -16.8046875 9.3609375 -17.734375 9.546875 C-20.20443058 10.04088612 -22.48757157 10.07178367 -25 10 C-25 9.34 -25 8.68 -25 8 C-24.31373535 7.89977539 -23.6274707 7.79955078 -22.92041016 7.69628906 C-19.81884055 7.23270926 -16.72222424 6.74173939 -13.625 6.25 C-12.00464844 6.01410156 -12.00464844 6.01410156 -10.3515625 5.7734375 C-9.3203125 5.60585937 -8.2890625 5.43828125 -7.2265625 5.265625 C-6.27346191 5.11899414 -5.32036133 4.97236328 -4.33837891 4.82128906 C-1.83436822 4.21200414 -1.83436822 4.21200414 -0.67333984 1.92089844 C-0.4511377 1.28700195 -0.22893555 0.65310547 0 0 Z " fill="#EDD4A6" transform="translate(136,84)"/>
<path d="M0 0 C2.4375 0.75 2.4375 0.75 5 2 C5.80444336 3.87597656 5.80444336 3.87597656 6 6 C4.26147439 8.43570086 2.56127273 10.55062492 0.5625 12.75 C0.03333984 13.35199219 -0.49582031 13.95398438 -1.04101562 14.57421875 C-2.34943866 16.05945571 -3.67329421 17.53107134 -5 19 C-5 16 -5 16 -2.5 13.4375 C0.70504034 9.87132835 0.41386156 6.58851824 0.17578125 1.9765625 C0.11777344 1.32429688 0.05976562 0.67203125 0 0 Z " fill="#AC1F19" transform="translate(110,95)"/>
<path d="M0 0 C2 3 2 3 3.5 6.5625 C4.74653251 9.99005769 4.74653251 9.99005769 7 12 C5.68 11.67 4.36 11.34 3 11 C1.53273202 14.81489674 2.56663581 17.29011622 4 21 C3.34 21 2.68 21 2 21 C-0.45489316 15.87674471 -1.50341703 11.66104589 -2 6 C-1.01 6.33 -0.02 6.66 1 7 C0.67 4.69 0.34 2.38 0 0 Z " fill="#AD7D43" transform="translate(37,124)"/>
<path d="M0 0 C0.33 0.66 0.66 1.32 1 2 C-0.42403733 5.00254367 -2.36658957 7.72419412 -4.1875 10.5 C-4.68314453 11.28503906 -5.17878906 12.07007813 -5.68945312 12.87890625 C-6.17736328 13.63042969 -6.66527344 14.38195313 -7.16796875 15.15625 C-7.61422607 15.84525391 -8.0604834 16.53425781 -8.52026367 17.24414062 C-10.17428384 19.2068057 -11.64987942 20.02054704 -14 21 C-12.64401019 17.22211794 -10.91839446 14.24252141 -8.5625 11 C-6.72197096 8.45585619 -4.98058618 5.96658355 -3.40234375 3.25 C-2 1 -2 1 0 0 Z " fill="#D4BA8F" transform="translate(76,28)"/>
<path d="M0 0 C0.91201612 2.47661958 1.1606318 3.60428938 0.15136719 6.09057617 C-0.29561523 6.81736572 -0.74259766 7.54415527 -1.203125 8.29296875 C-1.68910156 9.08767578 -2.17507812 9.88238281 -2.67578125 10.70117188 C-3.19527344 11.52166016 -3.71476562 12.34214844 -4.25 13.1875 C-4.75402344 14.01958984 -5.25804688 14.85167969 -5.77734375 15.70898438 C-9.60180338 21.86726779 -9.60180338 21.86726779 -13 23 C-11.73294681 19.63584449 -10.28886807 16.62968211 -8.3984375 13.57421875 C-7.90859375 12.77822266 -7.41875 11.98222656 -6.9140625 11.16210938 C-6.40617187 10.34548828 -5.89828125 9.52886719 -5.375 8.6875 C-4.859375 7.85154297 -4.34375 7.01558594 -3.8125 6.15429688 C-2.54512996 4.10068801 -1.27421427 2.04936659 0 0 Z " fill="#DDC8A4" transform="translate(88,6)"/>
<path d="M0 0 C2.3125 -0.3125 2.3125 -0.3125 5 0 C7.20858153 2.28220091 7.98692977 3.96745219 8.02734375 7.16015625 C7.63831631 11.39701878 6.86814763 15.13916156 5 19 C4.67 19 4.34 19 4 19 C4.04640625 17.96359375 4.0928125 16.9271875 4.140625 15.859375 C4.17815275 14.48961221 4.21455184 13.11981818 4.25 11.75 C4.28351563 11.06808594 4.31703125 10.38617188 4.3515625 9.68359375 C4.4215705 6.07818187 4.29151719 4.35931188 1.984375 1.515625 C1.32953125 1.01546875 0.6746875 0.5153125 0 0 Z " fill="#E1BA7D" transform="translate(137,113)"/>
<path d="M0 0 C3.375 0.3125 3.375 0.3125 7 1 C7.66 1.99 8.32 2.98 9 4 C8.01 5.485 8.01 5.485 7 7 C4.69 6.34 2.38 5.68 0 5 C0 6.98 0 8.96 0 11 C-0.33 11 -0.66 11 -1 11 C-1.125 3.375 -1.125 3.375 0 0 Z " fill="#E5C289" transform="translate(93,53)"/>
<path d="M0 0 C0.66 0 1.32 0 2 0 C2.10957031 0.6290625 2.21914063 1.258125 2.33203125 1.90625 C3.23916749 6.80331066 4.35045543 11.35043471 6.203125 15.97265625 C7.62613234 19.59295434 8.79336633 23.30307983 10 27 C7.01907735 24.46490449 5.80023699 21.70807828 4.3125 18.125 C3.87550781 17.09632813 3.43851563 16.06765625 2.98828125 15.0078125 C2.03715783 12.11308905 1.79411448 10.01594462 2 7 C1.34 7 0.68 7 0 7 C0 4.69 0 2.38 0 0 Z " fill="#E4D0B5" transform="translate(30,120)"/>
<path d="M0 0 C0.33 0 0.66 0 1 0 C1 8.58 1 17.16 1 26 C-2.87591174 22.12408826 -2.18277795 17.21314839 -2.1875 12 C-2.19974609 11.2884375 -2.21199219 10.576875 -2.22460938 9.84375 C-2.2351828 6.065513 -2.11035168 3.20306342 0 0 Z " fill="#D02824" transform="translate(41,103)"/>
<path d="M0 0 C0.66 1.32 1.32 2.64 2 4 C0.71344735 5.81613362 -0.57939995 7.62780954 -1.875 9.4375 C-2.95394531 10.95150391 -2.95394531 10.95150391 -4.0546875 12.49609375 C-6 15 -6 15 -8 16 C-6.80100302 12.9168649 -5.52299523 9.93720508 -4 7 C-4.66 6.67 -5.32 6.34 -6 6 C-4 4 -2 2 0 0 Z " fill="#DFC083" transform="translate(69,44)"/>
<path d="M0 0 C0.99 0.66 1.98 1.32 3 2 C2.05065487 3.67180274 1.09026687 5.33733936 0.125 7 C-0.40867187 7.928125 -0.94234375 8.85625 -1.4921875 9.8125 C-1.98976563 10.534375 -2.48734375 11.25625 -3 12 C-3.66 12 -4.32 12 -5 12 C-6.01397631 8.77371174 -6.20240769 7.43517654 -4.75 4.3125 C-3 2 -3 2 0 0 Z " fill="#EAD39D" transform="translate(81,25)"/>
<path d="M0 0 C5.445 1.485 5.445 1.485 11 3 C11 4.98 11 6.96 11 9 C12.65 9 14.3 9 16 9 C15.34 9.66 14.68 10.32 14 11 C11.375 10.625 11.375 10.625 9 10 C9 8.35 9 6.7 9 5 C8.2575 4.87625 7.515 4.7525 6.75 4.625 C4.19858515 4.04513299 2.2732427 3.26291261 0 2 C0 1.34 0 0.68 0 0 Z " fill="#8C100F" transform="translate(77,83)"/>
<path d="M0 0 C3.3 1.65 6.6 3.3 10 5 C10 6.98 10 8.96 10 11 C9.01 10.67 8.02 10.34 7 10 C7.33 9.34 7.66 8.68 8 8 C7.236875 7.7525 6.47375 7.505 5.6875 7.25 C2.73919055 5.87869328 1.64165468 4.7648921 0 2 C0 1.34 0 0.68 0 0 Z " fill="#7E0E0B" transform="translate(78,67)"/>
<path d="M0 0 C6.6 0 13.2 0 20 0 C15.44164865 3.41876351 14.47259605 3.44857345 9 3 C5.97183557 2.43583561 2.98515681 1.75813506 0 1 C0 0.67 0 0.34 0 0 Z " fill="#C99E80" transform="translate(78,173)"/>
<path d="M0 0 C3.76159981 0.52244442 6.32191002 1.2227215 9 4 C9.25 6.6875 9.25 6.6875 9 9 C8.2575 8.0409375 8.2575 8.0409375 7.5 7.0625 C4.01193613 4.18484731 1.46538959 4.29769264 -3 4 C-2.01 2.68 -1.02 1.36 0 0 Z " fill="#153312" transform="translate(132,112)"/>
<path d="M0 0 C5.15924464 4.40053219 8.13973101 9.89612699 11 16 C11 16.66 11 17.32 11 18 C10.01 18 9.02 18 8 18 C7.4121875 16.5459375 7.4121875 16.5459375 6.8125 15.0625 C5.16147578 11.17306794 3.11575231 7.56416547 0.98828125 3.91796875 C0 2 0 2 0 0 Z " fill="#88140E" transform="translate(124,70)"/>
<path d="M0 0 C0.33 0 0.66 0 1 0 C0.98839844 0.83144531 0.97679688 1.66289063 0.96484375 2.51953125 C0.95582031 3.60621094 0.94679688 4.69289063 0.9375 5.8125 C0.92589844 6.89144531 0.91429688 7.97039062 0.90234375 9.08203125 C0.86375234 12.06512169 0.86375234 12.06512169 2 15 C1.01 14.67 0.02 14.34 -1 14 C-1.33 12.35 -1.66 10.7 -2 9 C-2.33 9 -2.66 9 -3 9 C-3.25873987 5.89512156 -3.23307327 4.37494396 -1.5625 1.6875 C-1.046875 1.130625 -0.53125 0.57375 0 0 Z " fill="#AF2423" transform="translate(76,58)"/>
<path d="M0 0 C0.74958984 0.05220703 1.49917969 0.10441406 2.27148438 0.15820312 C4.11887082 0.28763784 5.96574371 0.42436518 7.8125 0.5625 C7.8125 0.8925 7.8125 1.2225 7.8125 1.5625 C-2.5825 2.0575 -2.5825 2.0575 -13.1875 2.5625 C-9.29376319 -1.33123681 -5.08564136 -0.38641991 0 0 Z " fill="#D2A566" transform="translate(89.1875,167.4375)"/>
<path d="M0 0 C0.66 0.33 1.32 0.66 2 1 C0.58653438 2.44064765 -0.83091211 3.87739015 -2.25 5.3125 C-3.43335938 6.51326172 -3.43335938 6.51326172 -4.640625 7.73828125 C-6.67394067 9.68743651 -8.70601078 11.37421406 -11 13 C-11.66 12.67 -12.32 12.34 -13 12 C-10.49152542 8.23728814 -10.49152542 8.23728814 -8.1875 7.125 C-4.81697778 5.39158857 -2.61215542 2.73088976 0 0 Z " fill="#C41819" transform="translate(58,118)"/>
<path d="M0 0 C0 4.24170573 -1.83750763 6.75139708 -4.6875 9.8125 C-5.120625 10.204375 -5.55375 10.59625 -6 11 C-6 10.34 -6 9.68 -6 9 C-6.66 8.67 -7.32 8.34 -8 8 C-6.71937515 6.2925002 -5.38232443 4.62626404 -4 3 C-3.34 3 -2.68 3 -2 3 C-2 2.34 -2 1.68 -2 1 C-1.34 0.67 -0.68 0.34 0 0 Z " fill="#BD9256" transform="translate(57,138)"/>
<path d="M0 0 C0 3.19610552 -0.54671542 4.41717626 -2 7.1875 C-2.37125 7.90292969 -2.7425 8.61835937 -3.125 9.35546875 C-3.558125 10.16951172 -3.558125 10.16951172 -4 11 C-5.07421875 9.19921875 -5.07421875 9.19921875 -6 7 C-4.8125 3.8125 -4.8125 3.8125 -3 1 C-2.01 0.67 -1.02 0.34 0 0 Z " fill="#C49C61" transform="translate(51,72)"/>
<path d="M0 0 C3.3 0.99 6.6 1.98 10 3 C10 3.99 10 4.98 10 6 C10.99 6 11.98 6 13 6 C12.67 6.66 12.34 7.32 12 8 C10.37025436 7.23925157 8.74633352 6.46601567 7.125 5.6875 C6.22007813 5.25824219 5.31515625 4.82898438 4.3828125 4.38671875 C2 3 2 3 0 0 Z " fill="#DFC092" transform="translate(54,162)"/>
<path d="M0 0 C6.36363636 -0.48951049 6.36363636 -0.48951049 9.4375 1.875 C11 4 11 4 11 6 C8.03 5.505 8.03 5.505 5 5 C5 3.68 5 2.36 5 1 C3.68 1 2.36 1 1 1 C0.67 2.32 0.34 3.64 0 5 C0 3.35 0 1.7 0 0 Z " fill="#D35345" transform="translate(88,46)"/>
<path d="M0 0 C3.53233755 1.17744585 3.86308075 1.95605641 5.6875 5.0625 C6.34298828 6.16271484 6.34298828 6.16271484 7.01171875 7.28515625 C7.33785156 7.85105469 7.66398437 8.41695312 8 9 C5.50638429 7.79618552 3.31856917 6.54571278 1 5 C1 4.34 1 3.68 1 3 C0.01 2.67 -0.98 2.34 -2 2 C-1.34 1.34 -0.68 0.68 0 0 Z " fill="#184622" transform="translate(70,132)"/>
<path d="M0 0 C2.4375 0.75 2.4375 0.75 5 2 C5.8125 4.125 5.8125 4.125 6 6 C5.01 6.66 4.02 7.32 3 8 C3 7.01 3 6.02 3 5 C2.01 4.67 1.02 4.34 0 4 C0 2.68 0 1.36 0 0 Z " fill="#7D120C" transform="translate(110,95)"/>
<path d="M0 0 C2 0 2 0 3.62109375 1.609375 C4.22050781 2.31578125 4.81992187 3.0221875 5.4375 3.75 C6.33275391 4.79414063 6.33275391 4.79414063 7.24609375 5.859375 C8.89081098 7.86673589 10.46126108 9.91070312 12 12 C5.96812559 9.31916693 2.62617971 6.08167932 0 0 Z " fill="#E4CDA9" transform="translate(42,150)"/>
<path d="M0 0 C2.49361571 1.20381448 4.68143083 2.45428722 7 4 C7 4.66 7 5.32 7 6 C6.01 6.33 5.02 6.66 4 7 C3.34 5.35 2.68 3.7 2 2 C1.21625 2.515625 0.4325 3.03125 -0.375 3.5625 C-1.24125 4.036875 -2.1075 4.51125 -3 5 C-3.66 4.67 -4.32 4.34 -5 4 C-3.35 2.68 -1.7 1.36 0 0 Z " fill="#BD9054" transform="translate(70,127)"/>
<path d="M0 0 C0.99 0 1.98 0 3 0 C3 3.3 3 6.6 3 10 C2.67 9.34 2.34 8.68 2 8 C1.34 8 0.68 8 0 8 C0 5.36 0 2.72 0 0 Z " fill="#B49F7E" transform="translate(30,112)"/>
<path d="M0 0 C-0.33 5.61 -0.66 11.22 -1 17 C-1.33 17 -1.66 17 -2 17 C-2.33 14.03 -2.66 11.06 -3 8 C-3.33 8 -3.66 8 -4 8 C-4.36780384 3.46375267 -4.36780384 3.46375267 -2.5625 1.1875 C-1 0 -1 0 0 0 Z " fill="#A3733A" transform="translate(38,104)"/>
<path d="M0 0 C0.66 0.33 1.32 0.66 2 1 C0.5140084 5.59306496 -1.85014682 8.43569245 -5 12 C-5.33 11.01 -5.66 10.02 -6 9 C-4.38405168 6.95880212 -2.7143618 4.95927063 -1 3 C-0.67 2.01 -0.34 1.02 0 0 Z " fill="#E3C589" transform="translate(117,97)"/>
<path d="M0 0 C4.79280002 0.80904103 6.13520113 3.25984591 9 7 C8.67 7.66 8.34 8.32 8 9 C4.46766245 7.82255415 4.13691925 7.04394359 2.3125 3.9375 C1.87550781 3.20402344 1.43851562 2.47054687 0.98828125 1.71484375 C0.49908203 0.86599609 0.49908203 0.86599609 0 0 Z " fill="#C5995A" transform="translate(75,134)"/>
<path d="M0 0 C0.66 0 1.32 0 2 0 C2.66 3.3 3.32 6.6 4 10 C3.01 10.495 3.01 10.495 2 11 C2 9.68 2 8.36 2 7 C1.34 7 0.68 7 0 7 C0 4.69 0 2.38 0 0 Z " fill="#CEBB9F" transform="translate(30,120)"/>
<path d="M0 0 C1.32 0.33 2.64 0.66 4 1 C1.36 2.98 -1.28 4.96 -4 7 C-4.66 6.67 -5.32 6.34 -6 6 C-5.09972412 4.96468274 -4.17906965 3.94705835 -3.25 2.9375 C-2.48429687 2.08478516 -2.48429687 2.08478516 -1.703125 1.21484375 C-1.14109375 0.81394531 -0.5790625 0.41304688 0 0 Z " fill="#C6A063" transform="translate(67,112)"/>
<path d="M0 0 C0.99 0.33 1.98 0.66 3 1 C3 2.32 3 3.64 3 5 C2.34 5 1.68 5 1 5 C0.67 5.99 0.34 6.98 0 8 C-0.66 8 -1.32 8 -2 8 C-1.125 1.125 -1.125 1.125 0 0 Z " fill="#A87C43" transform="translate(36,99)"/>
<path d="M0 0 C0.33 0.66 0.66 1.32 1 2 C0.00390625 3.9453125 0.00390625 3.9453125 -1.4375 6.125 C-1.91058594 6.84945312 -2.38367188 7.57390625 -2.87109375 8.3203125 C-3.24363281 8.87460937 -3.61617188 9.42890625 -4 10 C-4.99 9.67 -5.98 9.34 -7 9 C-6.21448343 7.68381002 -5.4213763 6.37214772 -4.625 5.0625 C-4.18414062 4.33160156 -3.74328125 3.60070312 -3.2890625 2.84765625 C-2 1 -2 1 0 0 Z " fill="#D9C095" transform="translate(76,28)"/>
<path d="M0 0 C-4.75 4 -4.75 4 -7 4 C-7.33 4.66 -7.66 5.32 -8 6 C-8.33 4.35 -8.66 2.7 -9 1 C-3.375 -1.125 -3.375 -1.125 0 0 Z " fill="#AD1C17" transform="translate(102,85)"/>
<path d="M0 0 C-1.09601169 1.00893131 -2.20213918 2.00688225 -3.3125 3 C-4.23482422 3.8353125 -4.23482422 3.8353125 -5.17578125 4.6875 C-7 6 -7 6 -10 6 C-8.20404732 1.26521567 -5.07984355 -1.69328118 0 0 Z " fill="#CEA261" transform="translate(72,130)"/>
<path d="M0 0 C2.50736509 2.18031747 3.48600243 3.71041554 4 7 C4 7.99 4 8.98 4 10 C2 8.9375 2 8.9375 0 7 C-0.25 3.3125 -0.25 3.3125 0 0 Z " fill="#901D18" transform="translate(76,63)"/>
<path d="M0 0 C1.32 0.33 2.64 0.66 4 1 C4.33 2.32 4.66 3.64 5 5 C3.68 5 2.36 5 1 5 C0.67 3.35 0.34 1.7 0 0 Z " fill="#EFD9A9" transform="translate(126,67)"/>
<path d="M0 0 C1.98 0.99 1.98 0.99 4 2 C4 2.99 4 3.98 4 5 C2.68 5.33 1.36 5.66 0 6 C0 4.02 0 2.04 0 0 Z " fill="#83170C" transform="translate(93,73)"/>
<path d="M0 0 C2.475 0.495 2.475 0.495 5 1 C5.33 1.99 5.66 2.98 6 4 C4.35 4.33 2.7 4.66 1 5 C0.67 3.35 0.34 1.7 0 0 Z " fill="#91190E" transform="translate(93,58)"/>
<path d="M0 0 C0.66 0 1.32 0 2 0 C0.6062718 4.43458973 -1.60582235 6.87378374 -5 10 C-3.85569823 6.12697862 -2.76679902 2.99736561 0 0 Z " fill="#BE2D1F" transform="translate(69,49)"/>
<path d="M0 0 C0.99 0.33 1.98 0.66 3 1 C0.03 3.475 0.03 3.475 -3 6 C-3.99 5.34 -4.98 4.68 -6 4 C-5.195625 3.525625 -4.39125 3.05125 -3.5625 2.5625 C-1.15246512 1.23099846 -1.15246512 1.23099846 0 0 Z " fill="#CF9A60" transform="translate(95,126)"/>
<path d="M0 0 C0.66 2.31 1.32 4.62 2 7 C-0.475 6.01 -0.475 6.01 -3 5 C-3 3.68 -3 2.36 -3 1 C-1 0 -1 0 0 0 Z " fill="#A92021" transform="translate(76,81)"/>
<path d="M0 0 C1.485 0.99 1.485 0.99 3 2 C4.9896995 2.39013716 6.99019869 2.73202649 9 3 C5.25 6 5.25 6 3 6 C0 2.53846154 0 2.53846154 0 0 Z " fill="#1A5A30" transform="translate(82,151)"/>
<path d="M0 0 C0.66 0.33 1.32 0.66 2 1 C0.35 2.98 -1.3 4.96 -3 7 C-3.99 6.67 -4.98 6.34 -6 6 C-4 4 -2 2 0 0 Z " fill="#CE965B" transform="translate(49,128)"/>
<path d="M0 0 C0.33 0.99 0.66 1.98 1 3 C-0.9375 6.1875 -0.9375 6.1875 -3 9 C-3.33 8.34 -3.66 7.68 -4 7 C-3.22265625 5.2734375 -3.22265625 5.2734375 -2.0625 3.375 C-1.381875 2.26125 -0.70125 1.1475 0 0 Z " fill="#D9B679" transform="translate(110,107)"/>
<path d="M0 0 C0 3 0 3 -2 5.1875 C-2.66 5.785625 -3.32 6.38375 -4 7 C-4.66 6.67 -5.32 6.34 -6 6 C-2.25 1.125 -2.25 1.125 0 0 Z " fill="#C7AB80" transform="translate(55,60)"/>
<path d="M0 0 C1.98 0.99 3.96 1.98 6 3 C5.67 4.65 5.34 6.3 5 8 C2.27573689 5.64722731 1.1858237 3.37503669 0 0 Z " fill="#91231A" transform="translate(96,30)"/>
<path d="M0 0 C0.33 0.66 0.66 1.32 1 2 C3.02463255 2.65213292 3.02463255 2.65213292 5 3 C5 3.66 5 4.32 5 5 C4.401875 4.773125 3.80375 4.54625 3.1875 4.3125 C2.1046875 4.1578125 2.1046875 4.1578125 1 4 C-0.77190909 5.35444301 -0.77190909 5.35444301 -2 7 C-1.125 2.25 -1.125 2.25 0 0 Z " fill="#AC2D23" transform="translate(87,20)"/>
<path d="M0 0 C0.66 0 1.32 0 2 0 C2 0.66 2 1.32 2 2 C1.34 2 0.68 2 0 2 C0 1.34 0 0.68 0 0 Z " fill="#D9CFCC" transform="translate(61,174)"/>
</svg>
